<mxfile host="app.diagrams.net" modified="2024-04-03T20:38:19.830Z" agent="Mozilla/5.0 (Windows NT 10.0; Win64; x64) AppleWebKit/537.36 (KHTML, like Gecko) Chrome/121.0.0.0 Safari/537.36 OPR/107.0.0.0" etag="PZ53nm1bz3Rvz8Y__3Zc" version="24.2.1" type="device">
  <diagram id="R2lEEEUBdFMjLlhIrx00" name="Page-1">
    <mxGraphModel dx="1689" dy="454" grid="1" gridSize="10" guides="1" tooltips="1" connect="1" arrows="1" fold="1" page="1" pageScale="1" pageWidth="850" pageHeight="1100" math="0" shadow="0" extFonts="Permanent Marker^https://fonts.googleapis.com/css?family=Permanent+Marker">
      <root>
        <mxCell id="0" />
        <mxCell id="1" parent="0" />
        <mxCell id="iS1wOVWLzIbY6WLi5ZnQ-2" value="Cliente" style="whiteSpace=wrap;html=1;align=center;" parent="1" vertex="1">
          <mxGeometry x="200" y="100" width="100" height="40" as="geometry" />
        </mxCell>
        <mxCell id="iS1wOVWLzIbY6WLi5ZnQ-3" value="Direccion" style="ellipse;whiteSpace=wrap;html=1;align=center;" parent="1" vertex="1">
          <mxGeometry x="240" y="190" width="100" height="40" as="geometry" />
        </mxCell>
        <mxCell id="iS1wOVWLzIbY6WLi5ZnQ-4" value="Nombre" style="ellipse;whiteSpace=wrap;html=1;align=center;" parent="1" vertex="1">
          <mxGeometry x="130" y="190" width="100" height="40" as="geometry" />
        </mxCell>
        <mxCell id="iS1wOVWLzIbY6WLi5ZnQ-5" value="&lt;u&gt;Nit&lt;/u&gt;" style="ellipse;whiteSpace=wrap;html=1;align=center;" parent="1" vertex="1">
          <mxGeometry x="20" y="190" width="100" height="40" as="geometry" />
        </mxCell>
        <mxCell id="iS1wOVWLzIbY6WLi5ZnQ-7" value="Ruta" style="whiteSpace=wrap;html=1;align=center;" parent="1" vertex="1">
          <mxGeometry x="220" y="450" width="100" height="40" as="geometry" />
        </mxCell>
        <mxCell id="iS1wOVWLzIbY6WLi5ZnQ-8" value="Paquete" style="whiteSpace=wrap;html=1;align=center;" parent="1" vertex="1">
          <mxGeometry x="230" y="740" width="100" height="40" as="geometry" />
        </mxCell>
        <mxCell id="iS1wOVWLzIbY6WLi5ZnQ-9" value="Usuario" style="whiteSpace=wrap;html=1;align=center;" parent="1" vertex="1">
          <mxGeometry x="845" y="90" width="100" height="40" as="geometry" />
        </mxCell>
        <mxCell id="iS1wOVWLzIbY6WLi5ZnQ-10" value="Punto de Control" style="whiteSpace=wrap;html=1;align=center;" parent="1" vertex="1">
          <mxGeometry x="785" y="418" width="100" height="40" as="geometry" />
        </mxCell>
        <mxCell id="iS1wOVWLzIbY6WLi5ZnQ-11" value="&lt;u&gt;ID&lt;/u&gt;" style="ellipse;whiteSpace=wrap;html=1;align=center;" parent="1" vertex="1">
          <mxGeometry x="550" y="190" width="100" height="40" as="geometry" />
        </mxCell>
        <mxCell id="iS1wOVWLzIbY6WLi5ZnQ-13" value="Rol" style="ellipse;whiteSpace=wrap;html=1;align=center;" parent="1" vertex="1">
          <mxGeometry x="670" y="190" width="100" height="40" as="geometry" />
        </mxCell>
        <mxCell id="iS1wOVWLzIbY6WLi5ZnQ-14" value="Nombre" style="ellipse;whiteSpace=wrap;html=1;align=center;" parent="1" vertex="1">
          <mxGeometry x="790" y="190" width="100" height="40" as="geometry" />
        </mxCell>
        <mxCell id="iS1wOVWLzIbY6WLi5ZnQ-15" value="&lt;u&gt;Codigo&lt;/u&gt;" style="ellipse;whiteSpace=wrap;html=1;align=center;" parent="1" vertex="1">
          <mxGeometry x="65" y="850" width="100" height="40" as="geometry" />
        </mxCell>
        <mxCell id="iS1wOVWLzIbY6WLi5ZnQ-17" value="&lt;u&gt;ID&lt;/u&gt;" style="ellipse;whiteSpace=wrap;html=1;align=center;" parent="1" vertex="1">
          <mxGeometry x="650" y="530" width="100" height="40" as="geometry" />
        </mxCell>
        <mxCell id="iS1wOVWLzIbY6WLi5ZnQ-18" value="id_usuario_operador" style="ellipse;whiteSpace=wrap;html=1;align=center;" parent="1" vertex="1">
          <mxGeometry x="772.5" y="530" width="125" height="60" as="geometry" />
        </mxCell>
        <mxCell id="iS1wOVWLzIbY6WLi5ZnQ-23" value="Tarifa" style="ellipse;whiteSpace=wrap;html=1;align=center;" parent="1" vertex="1">
          <mxGeometry x="920" y="530" width="100" height="40" as="geometry" />
        </mxCell>
        <mxCell id="iS1wOVWLzIbY6WLi5ZnQ-24" value="&lt;u&gt;ID&lt;/u&gt;" style="ellipse;whiteSpace=wrap;html=1;align=center;" parent="1" vertex="1">
          <mxGeometry x="10" y="540" width="100" height="40" as="geometry" />
        </mxCell>
        <mxCell id="iS1wOVWLzIbY6WLi5ZnQ-25" value="Estado" style="ellipse;whiteSpace=wrap;html=1;align=center;" parent="1" vertex="1">
          <mxGeometry x="230" y="540" width="100" height="40" as="geometry" />
        </mxCell>
        <mxCell id="iS1wOVWLzIbY6WLi5ZnQ-27" value="Destino" style="ellipse;whiteSpace=wrap;html=1;align=center;" parent="1" vertex="1">
          <mxGeometry x="275" y="850" width="100" height="40" as="geometry" />
        </mxCell>
        <mxCell id="iS1wOVWLzIbY6WLi5ZnQ-28" value="ID_Ruta" style="ellipse;whiteSpace=wrap;html=1;align=center;" parent="1" vertex="1">
          <mxGeometry x="380" y="850" width="100" height="40" as="geometry" />
        </mxCell>
        <mxCell id="iS1wOVWLzIbY6WLi5ZnQ-29" value="ID_Punto_Control" style="ellipse;whiteSpace=wrap;html=1;align=center;" parent="1" vertex="1">
          <mxGeometry x="355" y="540" width="135" height="40" as="geometry" />
        </mxCell>
        <mxCell id="iS1wOVWLzIbY6WLi5ZnQ-31" value="Telefono" style="ellipse;whiteSpace=wrap;html=1;align=center;" parent="1" vertex="1">
          <mxGeometry x="350" y="190" width="100" height="40" as="geometry" />
        </mxCell>
        <mxCell id="iS1wOVWLzIbY6WLi5ZnQ-32" value="Estado" style="ellipse;whiteSpace=wrap;html=1;align=center;" parent="1" vertex="1">
          <mxGeometry x="1020" y="190" width="100" height="40" as="geometry" />
        </mxCell>
        <mxCell id="iS1wOVWLzIbY6WLi5ZnQ-33" value="ContraseÃ±a" style="ellipse;whiteSpace=wrap;html=1;align=center;" parent="1" vertex="1">
          <mxGeometry x="910" y="190" width="100" height="40" as="geometry" />
        </mxCell>
        <mxCell id="8Qzd-gN7AWygO7cFxrfl-1" value="Nombre_Usuario" style="ellipse;whiteSpace=wrap;html=1;align=center;" parent="1" vertex="1">
          <mxGeometry x="1140" y="190" width="100" height="40" as="geometry" />
        </mxCell>
        <mxCell id="8Qzd-gN7AWygO7cFxrfl-2" value="atiende" style="shape=rhombus;perimeter=rhombusPerimeter;whiteSpace=wrap;html=1;align=center;" parent="1" vertex="1">
          <mxGeometry x="500" y="30" width="120" height="60" as="geometry" />
        </mxCell>
        <mxCell id="8Qzd-gN7AWygO7cFxrfl-3" value="" style="endArrow=none;html=1;rounded=0;entryX=0;entryY=0.5;entryDx=0;entryDy=0;" parent="1" target="8Qzd-gN7AWygO7cFxrfl-2" edge="1">
          <mxGeometry relative="1" as="geometry">
            <mxPoint x="300" y="119.5" as="sourcePoint" />
            <mxPoint x="460" y="119.5" as="targetPoint" />
          </mxGeometry>
        </mxCell>
        <mxCell id="8Qzd-gN7AWygO7cFxrfl-4" value="" style="endArrow=none;html=1;rounded=0;exitX=1;exitY=0.5;exitDx=0;exitDy=0;" parent="1" source="8Qzd-gN7AWygO7cFxrfl-2" edge="1">
          <mxGeometry relative="1" as="geometry">
            <mxPoint x="685" y="109.5" as="sourcePoint" />
            <mxPoint x="845" y="109.5" as="targetPoint" />
          </mxGeometry>
        </mxCell>
        <mxCell id="8Qzd-gN7AWygO7cFxrfl-5" value="1" style="text;html=1;align=center;verticalAlign=middle;resizable=0;points=[];autosize=1;strokeColor=none;fillColor=none;" parent="1" vertex="1">
          <mxGeometry x="815" y="80" width="30" height="30" as="geometry" />
        </mxCell>
        <mxCell id="8Qzd-gN7AWygO7cFxrfl-6" value="N" style="text;html=1;align=center;verticalAlign=middle;resizable=0;points=[];autosize=1;strokeColor=none;fillColor=none;" parent="1" vertex="1">
          <mxGeometry x="615" y="38" width="30" height="30" as="geometry" />
        </mxCell>
        <mxCell id="8Qzd-gN7AWygO7cFxrfl-7" value="1" style="text;html=1;align=center;verticalAlign=middle;resizable=0;points=[];autosize=1;strokeColor=none;fillColor=none;" parent="1" vertex="1">
          <mxGeometry x="295" y="88" width="30" height="30" as="geometry" />
        </mxCell>
        <mxCell id="8Qzd-gN7AWygO7cFxrfl-8" value="1" style="text;html=1;align=center;verticalAlign=middle;resizable=0;points=[];autosize=1;strokeColor=none;fillColor=none;" parent="1" vertex="1">
          <mxGeometry x="475" y="38" width="30" height="30" as="geometry" />
        </mxCell>
        <mxCell id="8Qzd-gN7AWygO7cFxrfl-10" value="" style="endArrow=none;html=1;rounded=0;entryX=0;entryY=1;entryDx=0;entryDy=0;exitX=0.57;exitY=-0.05;exitDx=0;exitDy=0;exitPerimeter=0;" parent="1" source="iS1wOVWLzIbY6WLi5ZnQ-5" target="iS1wOVWLzIbY6WLi5ZnQ-2" edge="1">
          <mxGeometry relative="1" as="geometry">
            <mxPoint x="70" y="169" as="sourcePoint" />
            <mxPoint x="230" y="169" as="targetPoint" />
          </mxGeometry>
        </mxCell>
        <mxCell id="8Qzd-gN7AWygO7cFxrfl-11" value="" style="endArrow=none;html=1;rounded=0;entryX=0.25;entryY=1;entryDx=0;entryDy=0;exitX=0.61;exitY=0.025;exitDx=0;exitDy=0;exitPerimeter=0;" parent="1" source="iS1wOVWLzIbY6WLi5ZnQ-4" target="iS1wOVWLzIbY6WLi5ZnQ-2" edge="1">
          <mxGeometry relative="1" as="geometry">
            <mxPoint x="200" y="189" as="sourcePoint" />
            <mxPoint x="350" y="189" as="targetPoint" />
          </mxGeometry>
        </mxCell>
        <mxCell id="8Qzd-gN7AWygO7cFxrfl-12" value="" style="endArrow=none;html=1;rounded=0;entryX=0.17;entryY=0.975;entryDx=0;entryDy=0;entryPerimeter=0;exitX=0.34;exitY=-0.025;exitDx=0;exitDy=0;exitPerimeter=0;" parent="1" source="iS1wOVWLzIbY6WLi5ZnQ-3" edge="1">
          <mxGeometry relative="1" as="geometry">
            <mxPoint x="230" y="192" as="sourcePoint" />
            <mxPoint x="256" y="140" as="targetPoint" />
          </mxGeometry>
        </mxCell>
        <mxCell id="8Qzd-gN7AWygO7cFxrfl-13" value="" style="endArrow=none;html=1;rounded=0;exitX=0.27;exitY=-0.05;exitDx=0;exitDy=0;exitPerimeter=0;entryX=1;entryY=1;entryDx=0;entryDy=0;" parent="1" source="iS1wOVWLzIbY6WLi5ZnQ-31" target="iS1wOVWLzIbY6WLi5ZnQ-2" edge="1">
          <mxGeometry relative="1" as="geometry">
            <mxPoint x="313" y="190" as="sourcePoint" />
            <mxPoint x="300" y="141" as="targetPoint" />
          </mxGeometry>
        </mxCell>
        <mxCell id="8Qzd-gN7AWygO7cFxrfl-14" value="" style="endArrow=none;html=1;rounded=0;entryX=0;entryY=1;entryDx=0;entryDy=0;" parent="1" target="iS1wOVWLzIbY6WLi5ZnQ-9" edge="1">
          <mxGeometry relative="1" as="geometry">
            <mxPoint x="610" y="190" as="sourcePoint" />
            <mxPoint x="770" y="190" as="targetPoint" />
          </mxGeometry>
        </mxCell>
        <mxCell id="8Qzd-gN7AWygO7cFxrfl-15" value="" style="endArrow=none;html=1;rounded=0;entryX=0.25;entryY=1;entryDx=0;entryDy=0;" parent="1" target="iS1wOVWLzIbY6WLi5ZnQ-9" edge="1">
          <mxGeometry relative="1" as="geometry">
            <mxPoint x="730" y="190" as="sourcePoint" />
            <mxPoint x="890" y="190" as="targetPoint" />
          </mxGeometry>
        </mxCell>
        <mxCell id="8Qzd-gN7AWygO7cFxrfl-16" value="" style="endArrow=none;html=1;rounded=0;entryX=0.45;entryY=1;entryDx=0;entryDy=0;entryPerimeter=0;" parent="1" target="iS1wOVWLzIbY6WLi5ZnQ-9" edge="1">
          <mxGeometry relative="1" as="geometry">
            <mxPoint x="845" y="189" as="sourcePoint" />
            <mxPoint x="1005" y="189" as="targetPoint" />
          </mxGeometry>
        </mxCell>
        <mxCell id="8Qzd-gN7AWygO7cFxrfl-17" value="" style="endArrow=none;html=1;rounded=0;" parent="1" edge="1">
          <mxGeometry relative="1" as="geometry">
            <mxPoint x="950" y="189" as="sourcePoint" />
            <mxPoint x="910" y="130" as="targetPoint" />
          </mxGeometry>
        </mxCell>
        <mxCell id="8Qzd-gN7AWygO7cFxrfl-18" value="" style="endArrow=none;html=1;rounded=0;entryX=0.87;entryY=1.05;entryDx=0;entryDy=0;entryPerimeter=0;" parent="1" target="iS1wOVWLzIbY6WLi5ZnQ-9" edge="1">
          <mxGeometry relative="1" as="geometry">
            <mxPoint x="1060" y="189" as="sourcePoint" />
            <mxPoint x="1230" y="189" as="targetPoint" />
          </mxGeometry>
        </mxCell>
        <mxCell id="8Qzd-gN7AWygO7cFxrfl-19" value="" style="endArrow=none;html=1;rounded=0;entryX=1;entryY=0.75;entryDx=0;entryDy=0;" parent="1" target="iS1wOVWLzIbY6WLi5ZnQ-9" edge="1">
          <mxGeometry relative="1" as="geometry">
            <mxPoint x="1170" y="189" as="sourcePoint" />
            <mxPoint x="1330" y="189" as="targetPoint" />
          </mxGeometry>
        </mxCell>
        <mxCell id="8Qzd-gN7AWygO7cFxrfl-20" value="1;1" style="text;html=1;align=center;verticalAlign=middle;resizable=0;points=[];autosize=1;strokeColor=none;fillColor=none;" parent="1" vertex="1">
          <mxGeometry x="360" y="38" width="40" height="30" as="geometry" />
        </mxCell>
        <mxCell id="8Qzd-gN7AWygO7cFxrfl-21" value="administra" style="shape=rhombus;perimeter=rhombusPerimeter;whiteSpace=wrap;html=1;align=center;" parent="1" vertex="1">
          <mxGeometry x="440" y="290" width="120" height="60" as="geometry" />
        </mxCell>
        <mxCell id="8Qzd-gN7AWygO7cFxrfl-22" value="" style="endArrow=none;html=1;rounded=0;entryX=0;entryY=0.75;entryDx=0;entryDy=0;" parent="1" target="iS1wOVWLzIbY6WLi5ZnQ-9" edge="1">
          <mxGeometry relative="1" as="geometry">
            <mxPoint x="500" y="290" as="sourcePoint" />
            <mxPoint x="660" y="290" as="targetPoint" />
            <Array as="points">
              <mxPoint x="500" y="120" />
            </Array>
          </mxGeometry>
        </mxCell>
        <mxCell id="8Qzd-gN7AWygO7cFxrfl-28" value="1" style="edgeLabel;html=1;align=center;verticalAlign=middle;resizable=0;points=[];" parent="8Qzd-gN7AWygO7cFxrfl-22" vertex="1" connectable="0">
          <mxGeometry x="0.9301" y="-3" relative="1" as="geometry">
            <mxPoint as="offset" />
          </mxGeometry>
        </mxCell>
        <mxCell id="8Qzd-gN7AWygO7cFxrfl-29" value="N" style="edgeLabel;html=1;align=center;verticalAlign=middle;resizable=0;points=[];" parent="8Qzd-gN7AWygO7cFxrfl-22" vertex="1" connectable="0">
          <mxGeometry x="-0.9612" y="-5" relative="1" as="geometry">
            <mxPoint as="offset" />
          </mxGeometry>
        </mxCell>
        <mxCell id="8Qzd-gN7AWygO7cFxrfl-23" value="" style="endArrow=none;html=1;rounded=0;" parent="1" edge="1">
          <mxGeometry relative="1" as="geometry">
            <mxPoint x="280" y="450" as="sourcePoint" />
            <mxPoint x="440" y="319.5" as="targetPoint" />
            <Array as="points">
              <mxPoint x="280" y="320" />
            </Array>
          </mxGeometry>
        </mxCell>
        <mxCell id="8Qzd-gN7AWygO7cFxrfl-24" value="" style="endArrow=none;html=1;rounded=0;entryX=0;entryY=1;entryDx=0;entryDy=0;exitX=0.67;exitY=0.025;exitDx=0;exitDy=0;exitPerimeter=0;" parent="1" source="iS1wOVWLzIbY6WLi5ZnQ-24" target="iS1wOVWLzIbY6WLi5ZnQ-7" edge="1">
          <mxGeometry relative="1" as="geometry">
            <mxPoint x="50" y="529" as="sourcePoint" />
            <mxPoint x="210" y="529" as="targetPoint" />
          </mxGeometry>
        </mxCell>
        <mxCell id="8Qzd-gN7AWygO7cFxrfl-25" value="" style="endArrow=none;html=1;rounded=0;entryX=0.58;entryY=0.975;entryDx=0;entryDy=0;entryPerimeter=0;" parent="1" source="iS1wOVWLzIbY6WLi5ZnQ-25" target="iS1wOVWLzIbY6WLi5ZnQ-7" edge="1">
          <mxGeometry relative="1" as="geometry">
            <mxPoint x="180" y="529" as="sourcePoint" />
            <mxPoint x="330" y="529" as="targetPoint" />
          </mxGeometry>
        </mxCell>
        <mxCell id="8Qzd-gN7AWygO7cFxrfl-27" value="" style="endArrow=none;html=1;rounded=0;entryX=0.5;entryY=0;entryDx=0;entryDy=0;" parent="1" target="iS1wOVWLzIbY6WLi5ZnQ-29" edge="1">
          <mxGeometry relative="1" as="geometry">
            <mxPoint x="320" y="489" as="sourcePoint" />
            <mxPoint x="480" y="489" as="targetPoint" />
          </mxGeometry>
        </mxCell>
        <mxCell id="8Qzd-gN7AWygO7cFxrfl-30" value="1" style="text;html=1;align=center;verticalAlign=middle;resizable=0;points=[];autosize=1;strokeColor=none;fillColor=none;" parent="1" vertex="1">
          <mxGeometry x="275" y="418" width="30" height="30" as="geometry" />
        </mxCell>
        <mxCell id="8Qzd-gN7AWygO7cFxrfl-31" value="1" style="text;html=1;align=center;verticalAlign=middle;resizable=0;points=[];autosize=1;strokeColor=none;fillColor=none;" parent="1" vertex="1">
          <mxGeometry x="415" y="318" width="30" height="30" as="geometry" />
        </mxCell>
        <mxCell id="8Qzd-gN7AWygO7cFxrfl-32" value="N;1" style="text;html=1;align=center;verticalAlign=middle;resizable=0;points=[];autosize=1;strokeColor=none;fillColor=none;" parent="1" vertex="1">
          <mxGeometry x="730" y="45" width="40" height="30" as="geometry" />
        </mxCell>
        <mxCell id="8Qzd-gN7AWygO7cFxrfl-33" value="N;1" style="text;html=1;align=center;verticalAlign=middle;resizable=0;points=[];autosize=1;strokeColor=none;fillColor=none;" parent="1" vertex="1">
          <mxGeometry x="490" y="130" width="40" height="30" as="geometry" />
        </mxCell>
        <mxCell id="8Qzd-gN7AWygO7cFxrfl-34" value="1;1" style="text;html=1;align=center;verticalAlign=middle;resizable=0;points=[];autosize=1;strokeColor=none;fillColor=none;" parent="1" vertex="1">
          <mxGeometry x="270" y="330" width="40" height="30" as="geometry" />
        </mxCell>
        <mxCell id="8Qzd-gN7AWygO7cFxrfl-35" value="" style="endArrow=none;html=1;rounded=0;entryX=0;entryY=1;entryDx=0;entryDy=0;" parent="1" source="iS1wOVWLzIbY6WLi5ZnQ-17" target="iS1wOVWLzIbY6WLi5ZnQ-10" edge="1">
          <mxGeometry relative="1" as="geometry">
            <mxPoint x="605" y="530" as="sourcePoint" />
            <mxPoint x="780" y="460" as="targetPoint" />
          </mxGeometry>
        </mxCell>
        <mxCell id="8Qzd-gN7AWygO7cFxrfl-37" value="" style="endArrow=none;html=1;rounded=0;entryX=0.44;entryY=1.05;entryDx=0;entryDy=0;entryPerimeter=0;" parent="1" target="iS1wOVWLzIbY6WLi5ZnQ-10" edge="1">
          <mxGeometry relative="1" as="geometry">
            <mxPoint x="830" y="529" as="sourcePoint" />
            <mxPoint x="990" y="529" as="targetPoint" />
          </mxGeometry>
        </mxCell>
        <mxCell id="8Qzd-gN7AWygO7cFxrfl-39" value="" style="endArrow=none;html=1;rounded=0;exitX=1;exitY=1;exitDx=0;exitDy=0;" parent="1" source="iS1wOVWLzIbY6WLi5ZnQ-10" edge="1" target="iS1wOVWLzIbY6WLi5ZnQ-23">
          <mxGeometry relative="1" as="geometry">
            <mxPoint x="910" y="529" as="sourcePoint" />
            <mxPoint x="1070" y="529" as="targetPoint" />
          </mxGeometry>
        </mxCell>
        <mxCell id="8Qzd-gN7AWygO7cFxrfl-40" value="administra" style="shape=rhombus;perimeter=rhombusPerimeter;whiteSpace=wrap;html=1;align=center;" parent="1" vertex="1">
          <mxGeometry x="835" y="280" width="120" height="60" as="geometry" />
        </mxCell>
        <mxCell id="8Qzd-gN7AWygO7cFxrfl-41" value="" style="endArrow=none;html=1;rounded=0;entryX=0;entryY=0.5;entryDx=0;entryDy=0;" parent="1" target="8Qzd-gN7AWygO7cFxrfl-40" edge="1">
          <mxGeometry relative="1" as="geometry">
            <mxPoint x="815" y="417" as="sourcePoint" />
            <mxPoint x="975" y="417" as="targetPoint" />
            <Array as="points">
              <mxPoint x="815" y="310" />
            </Array>
          </mxGeometry>
        </mxCell>
        <mxCell id="8Qzd-gN7AWygO7cFxrfl-42" value="" style="endArrow=none;html=1;rounded=0;exitX=0.5;exitY=1;exitDx=0;exitDy=0;entryX=0.5;entryY=0;entryDx=0;entryDy=0;" parent="1" source="iS1wOVWLzIbY6WLi5ZnQ-9" target="8Qzd-gN7AWygO7cFxrfl-40" edge="1">
          <mxGeometry relative="1" as="geometry">
            <mxPoint x="740" y="280" as="sourcePoint" />
            <mxPoint x="900" y="280" as="targetPoint" />
          </mxGeometry>
        </mxCell>
        <mxCell id="8Qzd-gN7AWygO7cFxrfl-47" value="1" style="text;html=1;align=center;verticalAlign=middle;resizable=0;points=[];autosize=1;strokeColor=none;fillColor=none;" parent="1" vertex="1">
          <mxGeometry x="885" y="128" width="30" height="30" as="geometry" />
        </mxCell>
        <mxCell id="8Qzd-gN7AWygO7cFxrfl-48" value="N" style="text;html=1;align=center;verticalAlign=middle;resizable=0;points=[];autosize=1;strokeColor=none;fillColor=none;" parent="1" vertex="1">
          <mxGeometry x="885" y="258" width="30" height="30" as="geometry" />
        </mxCell>
        <mxCell id="8Qzd-gN7AWygO7cFxrfl-49" value="1" style="text;html=1;align=center;verticalAlign=middle;resizable=0;points=[];autosize=1;strokeColor=none;fillColor=none;" parent="1" vertex="1">
          <mxGeometry x="805" y="388" width="30" height="30" as="geometry" />
        </mxCell>
        <mxCell id="8Qzd-gN7AWygO7cFxrfl-50" value="1" style="text;html=1;align=center;verticalAlign=middle;resizable=0;points=[];autosize=1;strokeColor=none;fillColor=none;" parent="1" vertex="1">
          <mxGeometry x="815" y="305" width="30" height="30" as="geometry" />
        </mxCell>
        <mxCell id="8Qzd-gN7AWygO7cFxrfl-51" value="" style="endArrow=none;html=1;rounded=0;entryX=0;entryY=1;entryDx=0;entryDy=0;entryPerimeter=0;" parent="1" target="iS1wOVWLzIbY6WLi5ZnQ-8" edge="1">
          <mxGeometry relative="1" as="geometry">
            <mxPoint x="120" y="849" as="sourcePoint" />
            <mxPoint x="280" y="849" as="targetPoint" />
          </mxGeometry>
        </mxCell>
        <mxCell id="8Qzd-gN7AWygO7cFxrfl-52" value="" style="endArrow=none;html=1;rounded=0;entryX=0.44;entryY=1.025;entryDx=0;entryDy=0;entryPerimeter=0;exitX=0.5;exitY=0;exitDx=0;exitDy=0;" parent="1" target="iS1wOVWLzIbY6WLi5ZnQ-8" edge="1">
          <mxGeometry relative="1" as="geometry">
            <mxPoint x="220" y="850" as="sourcePoint" />
            <mxPoint x="270" y="790" as="targetPoint" />
          </mxGeometry>
        </mxCell>
        <mxCell id="8Qzd-gN7AWygO7cFxrfl-53" value="" style="endArrow=none;html=1;rounded=0;exitX=0.75;exitY=1;exitDx=0;exitDy=0;entryX=0.39;entryY=-0.05;entryDx=0;entryDy=0;entryPerimeter=0;" parent="1" source="iS1wOVWLzIbY6WLi5ZnQ-8" target="iS1wOVWLzIbY6WLi5ZnQ-27" edge="1">
          <mxGeometry relative="1" as="geometry">
            <mxPoint x="270" y="850" as="sourcePoint" />
            <mxPoint x="430" y="850" as="targetPoint" />
          </mxGeometry>
        </mxCell>
        <mxCell id="8Qzd-gN7AWygO7cFxrfl-54" value="enviado" style="shape=rhombus;perimeter=rhombusPerimeter;whiteSpace=wrap;html=1;align=center;" parent="1" vertex="1">
          <mxGeometry x="440" y="640" width="120" height="60" as="geometry" />
        </mxCell>
        <mxCell id="8Qzd-gN7AWygO7cFxrfl-55" value="" style="endArrow=none;html=1;rounded=0;entryX=0;entryY=0.5;entryDx=0;entryDy=0;" parent="1" target="8Qzd-gN7AWygO7cFxrfl-54" edge="1">
          <mxGeometry relative="1" as="geometry">
            <mxPoint x="280" y="740" as="sourcePoint" />
            <mxPoint x="440" y="740" as="targetPoint" />
            <Array as="points">
              <mxPoint x="280" y="670" />
            </Array>
          </mxGeometry>
        </mxCell>
        <mxCell id="8Qzd-gN7AWygO7cFxrfl-56" value="" style="endArrow=none;html=1;rounded=0;entryX=1;entryY=0.5;entryDx=0;entryDy=0;" parent="1" target="iS1wOVWLzIbY6WLi5ZnQ-7" edge="1">
          <mxGeometry relative="1" as="geometry">
            <mxPoint x="500" y="640" as="sourcePoint" />
            <mxPoint x="660" y="640" as="targetPoint" />
            <Array as="points">
              <mxPoint x="500" y="470" />
            </Array>
          </mxGeometry>
        </mxCell>
        <mxCell id="8Qzd-gN7AWygO7cFxrfl-57" value="1" style="text;html=1;align=center;verticalAlign=middle;resizable=0;points=[];autosize=1;strokeColor=none;fillColor=none;" parent="1" vertex="1">
          <mxGeometry x="275" y="708" width="30" height="30" as="geometry" />
        </mxCell>
        <mxCell id="8Qzd-gN7AWygO7cFxrfl-58" value="1" style="text;html=1;align=center;verticalAlign=middle;resizable=0;points=[];autosize=1;strokeColor=none;fillColor=none;" parent="1" vertex="1">
          <mxGeometry x="415" y="670" width="30" height="30" as="geometry" />
        </mxCell>
        <mxCell id="8Qzd-gN7AWygO7cFxrfl-59" value="1" style="text;html=1;align=center;verticalAlign=middle;resizable=0;points=[];autosize=1;strokeColor=none;fillColor=none;" parent="1" vertex="1">
          <mxGeometry x="315" y="448" width="30" height="30" as="geometry" />
        </mxCell>
        <mxCell id="8Qzd-gN7AWygO7cFxrfl-60" value="N" style="text;html=1;align=center;verticalAlign=middle;resizable=0;points=[];autosize=1;strokeColor=none;fillColor=none;" parent="1" vertex="1">
          <mxGeometry x="495" y="618" width="30" height="30" as="geometry" />
        </mxCell>
        <mxCell id="8Qzd-gN7AWygO7cFxrfl-61" value="" style="endArrow=none;html=1;rounded=0;exitX=1;exitY=1;exitDx=0;exitDy=0;entryX=0.29;entryY=-0.05;entryDx=0;entryDy=0;entryPerimeter=0;" parent="1" source="iS1wOVWLzIbY6WLi5ZnQ-8" target="iS1wOVWLzIbY6WLi5ZnQ-28" edge="1">
          <mxGeometry relative="1" as="geometry">
            <mxPoint x="305" y="849" as="sourcePoint" />
            <mxPoint x="465" y="849" as="targetPoint" />
            <Array as="points">
              <mxPoint x="410" y="850" />
            </Array>
          </mxGeometry>
        </mxCell>
        <mxCell id="8Qzd-gN7AWygO7cFxrfl-62" value="asigna" style="shape=rhombus;perimeter=rhombusPerimeter;whiteSpace=wrap;html=1;align=center;" parent="1" vertex="1">
          <mxGeometry x="525" y="370" width="120" height="60" as="geometry" />
        </mxCell>
        <mxCell id="8Qzd-gN7AWygO7cFxrfl-63" value="" style="endArrow=none;html=1;rounded=0;entryX=0;entryY=0.5;entryDx=0;entryDy=0;" parent="1" target="8Qzd-gN7AWygO7cFxrfl-62" edge="1">
          <mxGeometry relative="1" as="geometry">
            <mxPoint x="310" y="450" as="sourcePoint" />
            <mxPoint x="470" y="450" as="targetPoint" />
            <Array as="points">
              <mxPoint x="310" y="400" />
            </Array>
          </mxGeometry>
        </mxCell>
        <mxCell id="8Qzd-gN7AWygO7cFxrfl-65" value="N" style="text;html=1;align=center;verticalAlign=middle;resizable=0;points=[];autosize=1;strokeColor=none;fillColor=none;" parent="1" vertex="1">
          <mxGeometry x="305" y="428" width="30" height="30" as="geometry" />
        </mxCell>
        <mxCell id="8Qzd-gN7AWygO7cFxrfl-66" value="1" style="text;html=1;align=center;verticalAlign=middle;resizable=0;points=[];autosize=1;strokeColor=none;fillColor=none;" parent="1" vertex="1">
          <mxGeometry x="505" y="398" width="30" height="30" as="geometry" />
        </mxCell>
        <mxCell id="8Qzd-gN7AWygO7cFxrfl-67" value="" style="endArrow=none;html=1;rounded=0;entryX=0.16;entryY=0.05;entryDx=0;entryDy=0;entryPerimeter=0;" parent="1" target="iS1wOVWLzIbY6WLi5ZnQ-10" edge="1">
          <mxGeometry relative="1" as="geometry">
            <mxPoint x="645" y="399.5" as="sourcePoint" />
            <mxPoint x="800" y="410" as="targetPoint" />
            <Array as="points">
              <mxPoint x="800" y="400" />
            </Array>
          </mxGeometry>
        </mxCell>
        <mxCell id="8Qzd-gN7AWygO7cFxrfl-69" value="N" style="text;html=1;align=center;verticalAlign=middle;resizable=0;points=[];autosize=1;strokeColor=none;fillColor=none;" parent="1" vertex="1">
          <mxGeometry x="635" y="398" width="30" height="30" as="geometry" />
        </mxCell>
        <mxCell id="8Qzd-gN7AWygO7cFxrfl-70" value="1" style="text;html=1;align=center;verticalAlign=middle;resizable=0;points=[];autosize=1;strokeColor=none;fillColor=none;" parent="1" vertex="1">
          <mxGeometry x="775" y="398" width="30" height="30" as="geometry" />
        </mxCell>
        <mxCell id="8Qzd-gN7AWygO7cFxrfl-71" value="recibe" style="shape=rhombus;perimeter=rhombusPerimeter;whiteSpace=wrap;html=1;align=center;" parent="1" vertex="1">
          <mxGeometry x="725" y="730" width="120" height="60" as="geometry" />
        </mxCell>
        <mxCell id="8Qzd-gN7AWygO7cFxrfl-72" value="" style="endArrow=none;html=1;rounded=0;entryX=1;entryY=0.75;entryDx=0;entryDy=0;exitX=1;exitY=0.5;exitDx=0;exitDy=0;" parent="1" source="8Qzd-gN7AWygO7cFxrfl-71" target="iS1wOVWLzIbY6WLi5ZnQ-10" edge="1">
          <mxGeometry relative="1" as="geometry">
            <mxPoint x="845" y="738" as="sourcePoint" />
            <mxPoint x="1005" y="738" as="targetPoint" />
            <Array as="points">
              <mxPoint x="1150" y="760" />
              <mxPoint x="1150" y="450" />
            </Array>
          </mxGeometry>
        </mxCell>
        <mxCell id="8Qzd-gN7AWygO7cFxrfl-73" value="" style="endArrow=none;html=1;rounded=0;entryX=0;entryY=0.5;entryDx=0;entryDy=0;" parent="1" target="8Qzd-gN7AWygO7cFxrfl-71" edge="1">
          <mxGeometry relative="1" as="geometry">
            <mxPoint x="330" y="759.5" as="sourcePoint" />
            <mxPoint x="490" y="759.5" as="targetPoint" />
          </mxGeometry>
        </mxCell>
        <mxCell id="8Qzd-gN7AWygO7cFxrfl-74" value="1" style="text;html=1;align=center;verticalAlign=middle;resizable=0;points=[];autosize=1;strokeColor=none;fillColor=none;" parent="1" vertex="1">
          <mxGeometry x="885" y="418" width="30" height="30" as="geometry" />
        </mxCell>
        <mxCell id="8Qzd-gN7AWygO7cFxrfl-75" value="N" style="text;html=1;align=center;verticalAlign=middle;resizable=0;points=[];autosize=1;strokeColor=none;fillColor=none;" parent="1" vertex="1">
          <mxGeometry x="845" y="738" width="30" height="30" as="geometry" />
        </mxCell>
        <mxCell id="8Qzd-gN7AWygO7cFxrfl-76" value="N" style="text;html=1;align=center;verticalAlign=middle;resizable=0;points=[];autosize=1;strokeColor=none;fillColor=none;" parent="1" vertex="1">
          <mxGeometry x="325" y="738" width="30" height="30" as="geometry" />
        </mxCell>
        <mxCell id="8Qzd-gN7AWygO7cFxrfl-77" value="1" style="text;html=1;align=center;verticalAlign=middle;resizable=0;points=[];autosize=1;strokeColor=none;fillColor=none;" parent="1" vertex="1">
          <mxGeometry x="705" y="738" width="30" height="30" as="geometry" />
        </mxCell>
        <mxCell id="8Qzd-gN7AWygO7cFxrfl-78" value="ID_Punto_Control" style="ellipse;whiteSpace=wrap;html=1;align=center;" parent="1" vertex="1">
          <mxGeometry x="490" y="850" width="100" height="40" as="geometry" />
        </mxCell>
        <mxCell id="8Qzd-gN7AWygO7cFxrfl-79" value="" style="endArrow=none;html=1;rounded=0;entryX=0.29;entryY=-0.05;entryDx=0;entryDy=0;entryPerimeter=0;exitX=1;exitY=0.75;exitDx=0;exitDy=0;exitPerimeter=0;" parent="1" source="iS1wOVWLzIbY6WLi5ZnQ-8" edge="1">
          <mxGeometry relative="1" as="geometry">
            <mxPoint x="340" y="770" as="sourcePoint" />
            <mxPoint x="539" y="848" as="targetPoint" />
            <Array as="points">
              <mxPoint x="540" y="850" />
            </Array>
          </mxGeometry>
        </mxCell>
        <mxCell id="8Qzd-gN7AWygO7cFxrfl-81" value="estado&amp;nbsp;" style="ellipse;whiteSpace=wrap;html=1;align=center;" parent="1" vertex="1">
          <mxGeometry x="-50" y="850" width="100" height="40" as="geometry" />
        </mxCell>
        <mxCell id="8Qzd-gN7AWygO7cFxrfl-82" value="estados; 1 -- en camino al punto de control: en que punto&lt;div&gt;2 -- que se ya encuentra en el punto de control de&lt;/div&gt;&lt;div&gt;3-- entregado al cliente&lt;/div&gt;&lt;div&gt;Estado cero -- cuando esta pendiente de enviar&lt;/div&gt;" style="text;html=1;align=center;verticalAlign=middle;resizable=0;points=[];autosize=1;strokeColor=none;fillColor=none;" parent="1" vertex="1">
          <mxGeometry x="230" y="1010" width="330" height="70" as="geometry" />
        </mxCell>
        <mxCell id="8Qzd-gN7AWygO7cFxrfl-83" value="Precio_XLibra_RC" style="ellipse;whiteSpace=wrap;html=1;align=center;" parent="1" vertex="1">
          <mxGeometry x="1260" y="190" width="100" height="40" as="geometry" />
        </mxCell>
        <mxCell id="8Qzd-gN7AWygO7cFxrfl-84" value="" style="endArrow=none;html=1;rounded=0;entryX=1;entryY=0.5;entryDx=0;entryDy=0;" parent="1" target="iS1wOVWLzIbY6WLi5ZnQ-9" edge="1">
          <mxGeometry relative="1" as="geometry">
            <mxPoint x="1305" y="187" as="sourcePoint" />
            <mxPoint x="1080" y="118" as="targetPoint" />
          </mxGeometry>
        </mxCell>
        <mxCell id="8Qzd-gN7AWygO7cFxrfl-85" value="detalle" style="ellipse;whiteSpace=wrap;html=1;align=center;" parent="1" vertex="1">
          <mxGeometry x="-160" y="850" width="100" height="40" as="geometry" />
        </mxCell>
        <mxCell id="8Qzd-gN7AWygO7cFxrfl-86" value="" style="endArrow=none;html=1;rounded=0;entryX=0;entryY=1;entryDx=0;entryDy=0;entryPerimeter=0;exitX=0.59;exitY=0.05;exitDx=0;exitDy=0;exitPerimeter=0;" parent="1" source="8Qzd-gN7AWygO7cFxrfl-81" edge="1">
          <mxGeometry relative="1" as="geometry">
            <mxPoint x="120" y="829" as="sourcePoint" />
            <mxPoint x="230" y="760" as="targetPoint" />
          </mxGeometry>
        </mxCell>
        <mxCell id="8Qzd-gN7AWygO7cFxrfl-87" value="" style="endArrow=none;html=1;rounded=0;entryX=0;entryY=0.25;entryDx=0;entryDy=0;exitX=0.59;exitY=0.05;exitDx=0;exitDy=0;exitPerimeter=0;" parent="1" target="iS1wOVWLzIbY6WLi5ZnQ-8" edge="1">
          <mxGeometry relative="1" as="geometry">
            <mxPoint x="-110.5" y="850" as="sourcePoint" />
            <mxPoint x="110.5" y="758" as="targetPoint" />
          </mxGeometry>
        </mxCell>
        <mxCell id="8Qzd-gN7AWygO7cFxrfl-88" value="Cuota" style="ellipse;whiteSpace=wrap;html=1;align=center;dashed=1;" parent="1" vertex="1">
          <mxGeometry x="170" y="850" width="100" height="40" as="geometry" />
        </mxCell>
        <mxCell id="8Qzd-gN7AWygO7cFxrfl-90" value="Disponible?" style="ellipse;whiteSpace=wrap;html=1;align=center;" parent="1" vertex="1">
          <mxGeometry x="120" y="540" width="100" height="40" as="geometry" />
        </mxCell>
        <mxCell id="8Qzd-gN7AWygO7cFxrfl-91" value="" style="endArrow=none;html=1;rounded=0;entryX=0.25;entryY=1;entryDx=0;entryDy=0;" parent="1" target="iS1wOVWLzIbY6WLi5ZnQ-7" edge="1">
          <mxGeometry relative="1" as="geometry">
            <mxPoint x="185" y="540" as="sourcePoint" />
            <mxPoint x="345" y="540" as="targetPoint" />
          </mxGeometry>
        </mxCell>
        <mxCell id="8Qzd-gN7AWygO7cFxrfl-100" style="edgeStyle=orthogonalEdgeStyle;rounded=0;orthogonalLoop=1;jettySize=auto;html=1;entryX=0;entryY=0.75;entryDx=0;entryDy=0;" parent="1" source="8Qzd-gN7AWygO7cFxrfl-92" target="iS1wOVWLzIbY6WLi5ZnQ-8" edge="1">
          <mxGeometry relative="1" as="geometry">
            <Array as="points">
              <mxPoint x="-50" y="770" />
            </Array>
          </mxGeometry>
        </mxCell>
        <mxCell id="8Qzd-gN7AWygO7cFxrfl-101" value="1" style="edgeLabel;html=1;align=center;verticalAlign=middle;resizable=0;points=[];" parent="8Qzd-gN7AWygO7cFxrfl-100" vertex="1" connectable="0">
          <mxGeometry x="0.7956" y="-2" relative="1" as="geometry">
            <mxPoint as="offset" />
          </mxGeometry>
        </mxCell>
        <mxCell id="8Qzd-gN7AWygO7cFxrfl-102" value="1" style="edgeLabel;html=1;align=center;verticalAlign=middle;resizable=0;points=[];" parent="8Qzd-gN7AWygO7cFxrfl-100" vertex="1" connectable="0">
          <mxGeometry x="-0.9095" y="2" relative="1" as="geometry">
            <mxPoint as="offset" />
          </mxGeometry>
        </mxCell>
        <mxCell id="8Qzd-gN7AWygO7cFxrfl-92" value="Cliente_Paquete" style="shape=associativeEntity;whiteSpace=wrap;html=1;align=center;" parent="1" vertex="1">
          <mxGeometry x="-120" y="305" width="140" height="60" as="geometry" />
        </mxCell>
        <mxCell id="8Qzd-gN7AWygO7cFxrfl-93" value="Nit_Client&lt;span style=&quot;color: rgba(0, 0, 0, 0); font-family: monospace; font-size: 0px; text-align: start; text-wrap: nowrap;&quot;&gt;%3CmxGraphModel%3E%3Croot%3E%3CmxCell%20id%3D%220%22%2F%3E%3CmxCell%20id%3D%221%22%20parent%3D%220%22%2F%3E%3CmxCell%20id%3D%222%22%20value%3D%22Estado%22%20style%3D%22ellipse%3BwhiteSpace%3Dwrap%3Bhtml%3D1%3Balign%3Dcenter%3B%22%20vertex%3D%221%22%20parent%3D%221%22%3E%3CmxGeometry%20x%3D%22230%22%20y%3D%22540%22%20width%3D%22100%22%20height%3D%2240%22%20as%3D%22geometry%22%2F%3E%3C%2FmxCell%3E%3C%2Froot%3E%3C%2FmxGraphModel%3E&lt;/span&gt;e&lt;span style=&quot;color: rgba(0, 0, 0, 0); font-family: monospace; font-size: 0px; text-align: start; text-wrap: nowrap;&quot;&gt;%3CmxGraphModel%3E%3Croot%3E%3CmxCell%20id%3D%220%22%2F%3E%3CmxCell%20id%3D%221%22%20parent%3D%220%22%2F%3E%3CmxCell%20id%3D%222%22%20value%3D%22Estado%22%20style%3D%22ellipse%3BwhiteSpace%3Dwrap%3Bhtml%3D1%3Balign%3Dcenter%3B%22%20vertex%3D%221%22%20parent%3D%221%22%3E%3CmxGeometry%20x%3D%22230%22%20y%3D%22540%22%20width%3D%22100%22%20height%3D%2240%22%20as%3D%22geometry%22%2F%3E%3C%2FmxCell%3E%3C%2Froot%3E%3C%2FmxGraphModel%3E&lt;/span&gt;&lt;span style=&quot;color: rgba(0, 0, 0, 0); font-family: monospace; font-size: 0px; text-align: start; text-wrap: nowrap;&quot;&gt;%3CmxGraphModel%3E%3Croot%3E%3CmxCell%20id%3D%220%22%2F%3E%3CmxCell%20id%3D%221%22%20parent%3D%220%22%2F%3E%3CmxCell%20id%3D%222%22%20value%3D%22Estado%22%20style%3D%22ellipse%3BwhiteSpace%3Dwrap%3Bhtml%3D1%3Balign%3Dcenter%3B%22%20vertex%3D%221%22%20parent%3D%221%22%3E%3CmxGeometry%20x%3D%22230%22%20y%3D%22540%22%20width%3D%22100%22%20height%3D%2240%22%20as%3D%22geometry%22%2F%3E%3C%2FmxCell%3E%3C%2Froot%3E%3C%2FmxGraphModel%3E&lt;/span&gt;" style="ellipse;whiteSpace=wrap;html=1;align=center;fontStyle=4;" parent="1" vertex="1">
          <mxGeometry x="-170" y="433" width="100" height="40" as="geometry" />
        </mxCell>
        <mxCell id="8Qzd-gN7AWygO7cFxrfl-94" value="ID_Paquete" style="ellipse;whiteSpace=wrap;html=1;align=center;fontStyle=4;" parent="1" vertex="1">
          <mxGeometry x="-20" y="433" width="100" height="40" as="geometry" />
        </mxCell>
        <mxCell id="8Qzd-gN7AWygO7cFxrfl-95" value="" style="endArrow=none;html=1;rounded=0;entryX=0.357;entryY=1.083;entryDx=0;entryDy=0;entryPerimeter=0;" parent="1" target="8Qzd-gN7AWygO7cFxrfl-92" edge="1">
          <mxGeometry relative="1" as="geometry">
            <mxPoint x="-130" y="430" as="sourcePoint" />
            <mxPoint x="30" y="430" as="targetPoint" />
          </mxGeometry>
        </mxCell>
        <mxCell id="8Qzd-gN7AWygO7cFxrfl-96" value="" style="endArrow=none;html=1;rounded=0;entryX=0.629;entryY=0.967;entryDx=0;entryDy=0;entryPerimeter=0;" parent="1" target="8Qzd-gN7AWygO7cFxrfl-92" edge="1">
          <mxGeometry relative="1" as="geometry">
            <mxPoint x="20" y="433" as="sourcePoint" />
            <mxPoint x="80" y="373" as="targetPoint" />
          </mxGeometry>
        </mxCell>
        <mxCell id="8Qzd-gN7AWygO7cFxrfl-97" value="" style="endArrow=none;html=1;rounded=0;entryX=0;entryY=0.5;entryDx=0;entryDy=0;" parent="1" target="iS1wOVWLzIbY6WLi5ZnQ-2" edge="1">
          <mxGeometry relative="1" as="geometry">
            <mxPoint x="-70" y="304" as="sourcePoint" />
            <mxPoint x="90" y="304" as="targetPoint" />
            <Array as="points">
              <mxPoint x="-70" y="120" />
            </Array>
          </mxGeometry>
        </mxCell>
        <mxCell id="8Qzd-gN7AWygO7cFxrfl-98" value="N" style="edgeLabel;html=1;align=center;verticalAlign=middle;resizable=0;points=[];" parent="8Qzd-gN7AWygO7cFxrfl-97" vertex="1" connectable="0">
          <mxGeometry x="-0.8943" y="1" relative="1" as="geometry">
            <mxPoint as="offset" />
          </mxGeometry>
        </mxCell>
        <mxCell id="8Qzd-gN7AWygO7cFxrfl-99" value="1" style="edgeLabel;html=1;align=center;verticalAlign=middle;resizable=0;points=[];" parent="8Qzd-gN7AWygO7cFxrfl-97" vertex="1" connectable="0">
          <mxGeometry x="0.7841" y="2" relative="1" as="geometry">
            <mxPoint as="offset" />
          </mxGeometry>
        </mxCell>
        <mxCell id="Afz5Nwihjg-rbZOFPb1d-1" value="hora_ingreso" style="ellipse;whiteSpace=wrap;html=1;align=center;" vertex="1" parent="1">
          <mxGeometry x="100" y="910" width="100" height="40" as="geometry" />
        </mxCell>
        <mxCell id="Afz5Nwihjg-rbZOFPb1d-2" value="hora_salida" style="ellipse;whiteSpace=wrap;html=1;align=center;" vertex="1" parent="1">
          <mxGeometry x="225" y="910" width="100" height="40" as="geometry" />
        </mxCell>
        <mxCell id="Afz5Nwihjg-rbZOFPb1d-3" value="peso" style="ellipse;whiteSpace=wrap;html=1;align=center;" vertex="1" parent="1">
          <mxGeometry x="360" y="910" width="100" height="40" as="geometry" />
        </mxCell>
        <mxCell id="Afz5Nwihjg-rbZOFPb1d-4" value="" style="endArrow=none;html=1;rounded=0;entryX=0.44;entryY=1.025;entryDx=0;entryDy=0;entryPerimeter=0;exitX=0.5;exitY=0;exitDx=0;exitDy=0;" edge="1" parent="1" source="Afz5Nwihjg-rbZOFPb1d-1">
          <mxGeometry relative="1" as="geometry">
            <mxPoint x="193" y="849" as="sourcePoint" />
            <mxPoint x="247" y="780" as="targetPoint" />
          </mxGeometry>
        </mxCell>
        <mxCell id="Afz5Nwihjg-rbZOFPb1d-5" value="" style="endArrow=none;html=1;rounded=0;exitX=0.75;exitY=1;exitDx=0;exitDy=0;entryX=0.5;entryY=0;entryDx=0;entryDy=0;" edge="1" parent="1" target="Afz5Nwihjg-rbZOFPb1d-2">
          <mxGeometry relative="1" as="geometry">
            <mxPoint x="285.5" y="780" as="sourcePoint" />
            <mxPoint x="294.5" y="848" as="targetPoint" />
          </mxGeometry>
        </mxCell>
        <mxCell id="Afz5Nwihjg-rbZOFPb1d-6" value="" style="endArrow=none;html=1;rounded=0;exitX=0.75;exitY=1;exitDx=0;exitDy=0;entryX=0.4;entryY=-0.05;entryDx=0;entryDy=0;entryPerimeter=0;" edge="1" parent="1" target="Afz5Nwihjg-rbZOFPb1d-3">
          <mxGeometry relative="1" as="geometry">
            <mxPoint x="321" y="782" as="sourcePoint" />
            <mxPoint x="330" y="850" as="targetPoint" />
          </mxGeometry>
        </mxCell>
      </root>
    </mxGraphModel>
  </diagram>
</mxfile>
